<?xml version="1.0" standalone="no"?>
<!DOCTYPE svg PUBLIC "-//W3C//DTD SVG 20010904//EN"
 "http://www.w3.org/TR/2001/REC-SVG-20010904/DTD/svg10.dtd">
<svg version="1.0" xmlns="http://www.w3.org/2000/svg"
 width="706.000000pt" height="706.000000pt" viewBox="0 0 706.000000 706.000000"
 preserveAspectRatio="xMidYMid meet">

<g transform="translate(0.000000,706.000000) scale(0.100000,-0.100000)"
fill="#000000" stroke="none">
<path d="M3247 4538 c-9 -7 -50 -110 -92 -228 -42 -118 -80 -227 -86 -241
l-10 -25 -196 99 c-148 75 -197 96 -204 86 -14 -23 -128 -362 -146 -434 -26
-108 -24 -333 5 -450 25 -100 100 -263 156 -340 134 -186 335 -321 565 -382
134 -36 334 -38 465 -4 346 89 599 321 710 652 l25 73 -207 107 -206 106 -17
-83 c-51 -252 -274 -434 -532 -434 -393 1 -659 419 -487 766 67 137 175 235
311 285 l58 21 -19 26 c-14 17 -20 40 -20 72 0 53 31 184 54 228 15 29 15 31
-22 71 -39 43 -73 52 -105 29z"/>
<path d="M1780 1855 l0 -215 170 0 170 0 0 52 c0 44 -5 58 -40 104 -22 29 -40
56 -40 60 0 4 18 31 40 60 34 46 40 60 40 104 l0 50 -170 0 -170 0 0 -215z
m260 140 c0 -3 -23 -36 -50 -72 l-50 -66 25 -34 c14 -18 36 -48 50 -66 14 -19
25 -37 25 -40 0 -4 -40 -7 -90 -7 l-90 0 0 145 0 145 90 0 c50 0 90 -2 90 -5z"/>
<path d="M2220 1860 l0 -210 35 0 35 0 0 175 0 175 96 0 96 0 -27 -37 c-16
-21 -43 -57 -62 -80 -18 -23 -33 -44 -33 -47 0 -4 30 -47 67 -96 l68 -90 48 0
48 0 -63 83 c-35 45 -67 87 -70 93 -4 5 15 39 43 74 45 58 49 68 49 117 l0 53
-165 0 -165 0 0 -210z"/>
<path d="M2650 1855 l0 -215 140 0 140 0 0 35 0 34 -102 3 -103 3 -3 53 -3 52
85 0 86 0 0 35 0 34 -82 3 -83 3 -3 53 -3 52 84 0 c74 0 86 3 104 23 43 47 44
47 -111 47 l-146 0 0 -215z"/>
<path d="M3010 1860 l0 -210 38 1 c36 0 40 4 147 145 60 79 113 144 117 144 4
0 8 -65 8 -145 l0 -145 38 1 c36 0 39 3 194 207 l158 207 -36 3 c-20 2 -42 1
-49 -2 -7 -2 -62 -69 -122 -147 l-108 -142 -3 147 -3 147 -42 -3 c-41 -3 -43
-5 -152 -147 l-110 -143 -3 146 -3 146 -34 0 -35 0 0 -210z"/>
<path d="M3900 1980 l0 -90 -95 0 -95 0 0 38 -1 37 -35 -38 -35 -37 3 -128 3
-127 33 -3 32 -3 0 90 0 91 95 0 95 0 0 -90 0 -90 35 0 35 0 0 220 0 220 -35
0 -35 0 0 -90z"/>
<path d="M4160 2047 c-128 -68 -149 -252 -40 -351 88 -80 214 -74 301 13 37
36 49 57 59 101 20 91 -14 176 -91 227 -61 40 -165 45 -229 10z m178 -67 c127
-78 75 -263 -74 -263 -111 0 -182 124 -121 214 43 65 131 88 195 49z"/>
<path d="M4624 2051 c-45 -28 -64 -59 -64 -108 0 -62 36 -98 120 -119 36 -9
73 -20 83 -25 22 -12 23 -62 1 -80 -25 -21 -91 -15 -127 11 l-30 23 -24 -29
-23 -29 27 -23 c55 -44 133 -53 199 -23 53 24 74 55 74 108 0 64 -43 108 -118
123 -31 6 -67 15 -78 20 -30 12 -36 45 -12 75 24 31 70 33 114 6 l32 -19 22
23 c20 21 21 27 10 40 -39 47 -149 61 -206 26z"/>
<path d="M4930 2035 l0 -35 60 0 60 0 0 -175 0 -175 35 0 35 0 0 175 0 175 70
0 c39 0 70 2 70 5 0 3 -10 19 -22 35 l-22 30 -143 0 -143 0 0 -35z"/>
</g>
</svg>
