<?xml version="1.0" encoding="UTF-8"?>
<!DOCTYPE svg PUBLIC "-//W3C//DTD SVG 1.1//EN" "http://www.w3.org/Graphics/SVG/1.1/DTD/svg11.dtd">
<!-- Creator: CorelDRAW 2019 (64-Bit) -->
<svg xmlns="http://www.w3.org/2000/svg" xml:space="preserve" width="710px" height="100px" version="1.1" style="shape-rendering:geometricPrecision; text-rendering:geometricPrecision; image-rendering:optimizeQuality; fill-rule:evenodd; clip-rule:evenodd"
viewBox="0 0 710 100"
 xmlns:xlink="http://www.w3.org/1999/xlink">
 <defs>
  <style type="text/css">
   <![CDATA[
    .fil4 {fill:url(#id0)}
    .fil0 {fill:url(#id1);fill-rule:nonzero}
    .fil5 {fill:url(#id2);fill-rule:nonzero}
    .fil2 {fill:url(#id3);fill-rule:nonzero}
    .fil3 {fill:url(#id4);fill-rule:nonzero}
    .fil1 {fill:url(#id5);fill-rule:nonzero}
    .fil7 {fill:url(#id6);fill-rule:nonzero}
    .fil6 {fill:url(#id7);fill-rule:nonzero}
   ]]>
  </style>
  <linearGradient id="id0" gradientUnits="userSpaceOnUse" x1="222.922" y1="104.945" x2="222.923" y2="1.446">
   <stop offset="0" style="stop-opacity:1; stop-color:#0A6DAE"/>
   <stop offset="1" style="stop-opacity:1; stop-color:#44AEC4"/>
  </linearGradient>
  <linearGradient id="id1" gradientUnits="userSpaceOnUse" xlink:href="#id0" x1="222.922" y1="104.945" x2="222.923" y2="1.445">
  </linearGradient>
  <linearGradient id="id2" gradientUnits="userSpaceOnUse" xlink:href="#id0" x1="222.922" y1="104.945" x2="222.923" y2="1.445">
  </linearGradient>
  <linearGradient id="id3" gradientUnits="userSpaceOnUse" xlink:href="#id0" x1="222.922" y1="104.945" x2="222.923" y2="1.445">
  </linearGradient>
  <linearGradient id="id4" gradientUnits="userSpaceOnUse" xlink:href="#id0" x1="222.922" y1="104.945" x2="222.923" y2="1.445">
  </linearGradient>
  <linearGradient id="id5" gradientUnits="userSpaceOnUse" xlink:href="#id0" x1="222.922" y1="104.945" x2="222.923" y2="1.445">
  </linearGradient>
  <linearGradient id="id6" gradientUnits="userSpaceOnUse" xlink:href="#id0" x1="175.16" y1="102.175" x2="175.161" y2="3.064">
  </linearGradient>
  <linearGradient id="id7" gradientUnits="userSpaceOnUse" xlink:href="#id0" x1="236.791" y1="105.654" x2="236.792" y2="-0.156">
  </linearGradient>
 </defs>
 <g id="Layer_x0020_1">
  <metadata id="CorelCorpID_0Corel-Layer"/>
  <g id="_2222252743616">
   <path class="fil0" d="M3.244 5.784l66.423 0c1.006,0 1.509,0.503 1.509,1.509l0 18.493c0,1.174 -0.335,2.222 -1.006,3.145l-16.103 20.883 16.103 20.882c0.671,0.923 1.006,1.971 1.006,3.145l0 18.493c0,1.006 -0.503,1.51 -1.509,1.51l-66.423 0c-0.419,0 -0.775,-0.147 -1.069,-0.441 -0.293,-0.293 -0.44,-0.65 -0.44,-1.069l0 -85.041c0,-0.419 0.147,-0.775 0.44,-1.069 0.294,-0.293 0.65,-0.44 1.069,-0.44zm51.452 72.083l-20.757 -27.047c-0.419,-0.671 -0.419,-1.3 0,-1.887l20.757 -27.173 -36.859 0 0 56.107 36.859 0z"/>
   <path class="fil1" d="M89.292 7.042c0,-0.419 0.147,-0.776 0.441,-1.069 0.293,-0.294 0.65,-0.441 1.069,-0.441l66.422 0c0.419,0 0.776,0.147 1.069,0.441 0.294,0.293 0.441,0.65 0.441,1.069l0 18.492c0,1.174 -0.378,2.223 -1.133,3.145l-19.876 26.041 28.431 37.111c0.252,0.419 0.273,0.817 0.063,1.195 -0.21,0.377 -0.524,0.566 -0.944,0.566l-15.976 0c-1.677,0 -3.061,-0.671 -4.152,-2.013l-27.55 -35.853c-0.587,-0.671 -0.587,-1.3 0,-1.887l24.783 -32.33 -36.985 0 0 70.573c0,1.007 -0.545,1.51 -1.636,1.51l-12.957 0c-0.419,0 -0.776,-0.147 -1.069,-0.44 -0.294,-0.294 -0.441,-0.65 -0.441,-1.07l0 -85.04z"/>
   <path class="fil2" d="M177.982 5.784l58.245 0c0.503,0 0.86,0.189 1.069,0.566 0.21,0.377 0.147,0.776 -0.188,1.195l-9.31 12.203c-1.09,1.341 -2.474,2.012 -4.151,2.012l-31.072 0 0 20.128 31.45 0c1.006,0 1.509,0.504 1.509,1.51l0 12.831c0,1.091 -0.503,1.636 -1.509,1.636l-31.45 0 0 20.002 39.752 0c0.42,0 0.776,0.147 1.07,0.44 0.293,0.294 0.44,0.65 0.44,1.07l0 12.957c0,1.006 -0.503,1.51 -1.51,1.51l-54.345 0c-0.419,0 -0.776,-0.147 -1.069,-0.441 -0.294,-0.293 -0.441,-0.65 -0.441,-1.069l0 -85.041c0,-0.419 0.147,-0.775 0.441,-1.069 0.293,-0.293 0.65,-0.44 1.069,-0.44z"/>
   <path class="fil3" d="M391.338 5.532l-15.977 0c-1.677,0 -3.061,0.671 -4.151,2.013l-45.288 58.874 0 -59.377c0,-0.419 -0.147,-0.776 -0.44,-1.069 -0.294,-0.294 -0.65,-0.441 -1.07,-0.441l-11.951 0c-1.677,0 -3.061,0.671 -4.151,2.013l-45.162 58.874 0 -59.377c0,-0.419 -0.168,-0.776 -0.503,-1.069 -0.336,-0.294 -0.713,-0.441 -1.132,-0.441l-12.958 0c-0.419,0 -0.775,0.147 -1.069,0.441 -0.294,0.293 -0.44,0.65 -0.44,1.069l0 85.04c0,1.007 0.503,1.51 1.509,1.51l11.951 0c1.677,0 3.061,-0.671 4.152,-2.013l45.287 -58.874 0 59.377c0,1.007 0.503,1.51 1.51,1.51l11.951 0c1.677,0 3.061,-0.671 4.151,-2.013l64.661 -84.286c0.336,-0.335 0.378,-0.712 0.126,-1.132 -0.252,-0.419 -0.587,-0.629 -1.006,-0.629z"/>
   <path class="fil4" d="M375.185 92.335l0 -50.61c5.306,-5.476 11.308,-11.986 16.103,-18.296l0 18.46 36.104 0 0 -34.596c0,-0.419 0.147,-0.775 0.44,-1.069 0.295,-0.293 0.651,-0.441 1.07,-0.441l13.084 0c0.418,0 0.775,0.148 1.068,0.441 0.295,0.294 0.441,0.65 0.441,1.069l0 85.042c0,0.419 -0.146,0.775 -0.441,1.069 -0.293,0.294 -0.65,0.44 -1.068,0.44l-13.084 0c-0.419,0 -0.775,-0.146 -1.07,-0.44 -0.293,-0.294 -0.44,-0.65 -0.44,-1.069l0 -34.47 -36.104 0 0 34.47c0,1.006 -0.546,1.509 -1.635,1.509l-12.958 0c-0.419,0 -0.776,-0.146 -1.07,-0.44 -0.293,-0.294 -0.44,-0.65 -0.44,-1.069z"/>
   <path class="fil5" d="M458.088 49.436c0,-6.457 1.195,-12.475 3.585,-18.052 2.39,-5.577 5.619,-10.399 9.687,-14.467 4.067,-4.068 8.868,-7.254 14.404,-9.561 5.535,-2.306 11.489,-3.417 17.863,-3.333 6.374,0.084 12.328,1.342 17.864,3.774 5.535,2.432 10.336,5.744 14.404,9.938 4.067,4.193 7.275,9.078 9.624,14.655 2.348,5.578 3.48,11.511 3.396,17.801 -0.084,6.374 -1.342,12.329 -3.774,17.863 -2.432,5.536 -5.724,10.358 -9.875,14.468 -4.151,4.109 -8.995,7.317 -14.53,9.623 -5.535,2.307 -11.49,3.46 -17.864,3.46 -6.29,0 -12.181,-1.195 -17.674,-3.586 -5.494,-2.39 -10.253,-5.661 -14.279,-9.812 -4.025,-4.151 -7.17,-9.037 -9.435,-14.656 -2.264,-5.619 -3.396,-11.657 -3.396,-18.115zm16.102 0.629c0,4.11 0.797,8.01 2.39,11.7 1.594,3.69 3.732,6.918 6.416,9.686 2.684,2.768 5.787,4.948 9.309,6.542 3.523,1.593 7.297,2.39 11.322,2.39 3.942,-0.084 7.674,-0.964 11.196,-2.642 3.523,-1.677 6.605,-3.921 9.247,-6.73 2.642,-2.81 4.717,-6.08 6.227,-9.812 1.509,-3.733 2.222,-7.653 2.138,-11.763 0,-4.109 -0.796,-8.009 -2.39,-11.699 -1.593,-3.69 -3.732,-6.898 -6.416,-9.624 -2.683,-2.725 -5.808,-4.885 -9.372,-6.478 -3.564,-1.594 -7.317,-2.391 -11.259,-2.391 -3.942,0.084 -7.674,0.944 -11.196,2.579 -3.522,1.636 -6.583,3.858 -9.183,6.668 -2.6,2.809 -4.655,6.059 -6.165,9.749 -1.509,3.69 -2.264,7.632 -2.264,11.825z"/>
   <path class="fil6" d="M560.993 31.573c0,-3.942 0.818,-7.59 2.453,-10.945 1.636,-3.355 3.858,-6.248 6.668,-8.68 2.809,-2.432 6.08,-4.361 9.812,-5.787 3.732,-1.425 7.695,-2.138 11.888,-2.138 6.541,0 12.224,1.153 17.046,3.459 4.822,2.306 8.449,4.969 10.881,7.988 0.588,0.755 0.546,1.426 -0.125,2.013l-8.68 9.058c-0.336,0.335 -0.734,0.503 -1.195,0.503 -0.462,0 -0.86,-0.21 -1.196,-0.629 -0.754,-0.839 -1.698,-1.677 -2.83,-2.516 -1.132,-0.839 -2.432,-1.614 -3.9,-2.327 -1.468,-0.713 -3.04,-1.279 -4.718,-1.699 -1.677,-0.419 -3.396,-0.629 -5.157,-0.629 -2.097,0 -4.005,0.315 -5.724,0.944 -1.719,0.629 -3.166,1.447 -4.34,2.453 -1.174,1.006 -2.097,2.181 -2.768,3.522 -0.671,1.342 -1.006,2.768 -1.006,4.277 0,2.433 0.796,4.529 2.39,6.29 1.593,1.762 3.984,2.978 7.171,3.649l12.328 2.39c4.026,0.755 7.569,1.95 10.63,3.585 3.061,1.635 5.619,3.585 7.674,5.85 2.055,2.264 3.627,4.801 4.717,7.611 1.091,2.809 1.636,5.766 1.636,8.868 0,3.355 -0.692,6.668 -2.076,9.939 -1.384,3.271 -3.439,6.206 -6.164,8.806 -2.726,2.6 -6.059,4.675 -10.001,6.227 -3.942,1.551 -8.471,2.327 -13.587,2.327 -3.606,0 -6.981,-0.377 -10.126,-1.132 -3.146,-0.755 -5.997,-1.74 -8.555,-2.956 -2.558,-1.217 -4.801,-2.558 -6.73,-4.026 -1.929,-1.468 -3.523,-2.914 -4.781,-4.34 -0.587,-0.587 -0.587,-1.258 0,-2.013l7.926 -10.19c0.252,-0.419 0.608,-0.65 1.069,-0.692 0.462,-0.042 0.86,0.105 1.195,0.441 1.174,1.09 2.474,2.201 3.9,3.333 1.426,1.133 2.977,2.16 4.655,3.083 1.677,0.922 3.48,1.677 5.409,2.264 1.929,0.587 3.984,0.881 6.164,0.881 4.613,0 8.135,-1.007 10.567,-3.02 2.433,-2.012 3.649,-4.612 3.649,-7.799 0,-2.516 -0.902,-4.718 -2.705,-6.605 -1.803,-1.887 -4.466,-3.166 -7.989,-3.837l-12.328 -2.516c-7.045,-1.425 -12.663,-4.319 -16.857,-8.68 -4.193,-4.361 -6.29,-9.896 -6.29,-16.605z"/>
   <path class="fil7" d="M638.389 7.042c0,-0.419 0.146,-0.776 0.44,-1.069 0.294,-0.294 0.65,-0.441 1.069,-0.441l54.597 0c1.678,0 3.061,0.671 4.152,2.013l9.309 12.203c0.335,0.419 0.398,0.817 0.188,1.195 -0.209,0.377 -0.566,0.566 -1.069,0.566l-28.053 0 0 70.573c0,1.007 -0.503,1.51 -1.51,1.51l-12.957 0c-1.006,0 -1.509,-0.503 -1.509,-1.51l0 -70.573 -23.148 0c-0.419,0 -0.775,-0.147 -1.069,-0.44 -0.294,-0.294 -0.44,-0.65 -0.44,-1.07l0 -12.957z"/>
  </g>
 </g>
</svg>
